<svg width="200" height="32" viewBox="0 0 200 32" fill="none" xmlns="http://www.w3.org/2000/svg">
<path d="M55.414 27.312C53.9927 27.312 52.6667 27.0607 51.436 26.558C50.2053 26.0553 49.1307 25.3533 48.212 24.452C47.2933 23.5507 46.574 22.4933 46.054 21.28C45.5513 20.0493 45.3 18.7233 45.3 17.302C45.3 15.8633 45.5513 14.5373 46.054 13.324C46.5567 12.1107 47.2673 11.0533 48.186 10.152C49.1047 9.25067 50.1793 8.55733 51.41 8.072C52.6407 7.56933 53.9753 7.318 55.414 7.318C56.8527 7.318 58.1873 7.56933 59.418 8.072C60.6487 8.57467 61.7233 9.27667 62.642 10.178C63.5607 11.062 64.2713 12.1107 64.774 13.324C65.294 14.5373 65.554 15.8633 65.554 17.302C65.554 18.7233 65.294 20.0493 64.774 21.28C64.254 22.4933 63.5347 23.5507 62.616 24.452C61.6973 25.3533 60.6227 26.0553 59.392 26.558C58.1787 27.0607 56.8527 27.312 55.414 27.312ZM55.414 24.088C56.3673 24.088 57.2427 23.9233 58.04 23.594C58.8373 23.2473 59.5307 22.7707 60.12 22.164C60.7267 21.5573 61.186 20.838 61.498 20.006C61.8273 19.174 61.992 18.2727 61.992 17.302C61.992 16.3313 61.8273 15.4387 61.498 14.624C61.186 13.792 60.7267 13.0727 60.12 12.466C59.5307 11.842 58.8373 11.3653 58.04 11.036C57.2427 10.7067 56.3673 10.542 55.414 10.542C54.478 10.542 53.6113 10.7067 52.814 11.036C52.0167 11.3653 51.3147 11.842 50.708 12.466C50.1187 13.0727 49.6593 13.792 49.33 14.624C49.0007 15.4387 48.836 16.3313 48.836 17.302C48.836 18.2727 49.0007 19.174 49.33 20.006C49.6593 20.838 50.1187 21.5573 50.708 22.164C51.3147 22.7707 52.0167 23.2473 52.814 23.594C53.6113 23.9233 54.478 24.088 55.414 24.088ZM71.9742 27L67.1122 12.856H70.7002L74.2622 23.594L73.0142 23.568L76.8102 12.856H79.8262L83.5962 23.568L82.3482 23.594L85.9102 12.856H89.4982L84.6362 27H81.5942L77.7462 15.794H78.8902L74.9902 27H71.9742ZM91.3653 27V7.318H94.7713V27H91.3653ZM98.2021 27V7.63H101.738V16.08H109.98V7.63H113.542V27H109.98V19.2H101.738V27H98.2021ZM121.274 27.312C120.286 27.312 119.428 27.1473 118.7 26.818C117.972 26.4887 117.409 26.0207 117.01 25.414C116.612 24.79 116.412 24.0707 116.412 23.256C116.412 22.476 116.586 21.7827 116.932 21.176C117.279 20.552 117.816 20.032 118.544 19.616C119.272 19.2 120.191 18.9053 121.3 18.732L125.928 17.978V20.578L121.95 21.254C121.274 21.3753 120.772 21.592 120.442 21.904C120.113 22.216 119.948 22.6233 119.948 23.126C119.948 23.6113 120.13 24.0013 120.494 24.296C120.876 24.5733 121.344 24.712 121.898 24.712C122.609 24.712 123.233 24.5647 123.77 24.27C124.325 23.958 124.75 23.5333 125.044 22.996C125.356 22.4587 125.512 21.8693 125.512 21.228V17.588C125.512 16.9813 125.27 16.4787 124.784 16.08C124.316 15.664 123.692 15.456 122.912 15.456C122.184 15.456 121.534 15.6553 120.962 16.054C120.408 16.4353 120 16.9467 119.74 17.588L116.958 16.236C117.236 15.4907 117.669 14.8493 118.258 14.312C118.865 13.7573 119.576 13.324 120.39 13.012C121.205 12.7 122.089 12.544 123.042 12.544C124.204 12.544 125.226 12.7607 126.11 13.194C126.994 13.61 127.679 14.1993 128.164 14.962C128.667 15.7073 128.918 16.5827 128.918 17.588V27H125.694V24.582L126.422 24.53C126.058 25.1367 125.625 25.648 125.122 26.064C124.62 26.4627 124.048 26.7747 123.406 27C122.765 27.208 122.054 27.312 121.274 27.312ZM132.066 27V12.856H135.264V16.002L135.004 15.534C135.334 14.4767 135.845 13.74 136.538 13.324C137.249 12.908 138.098 12.7 139.086 12.7H139.918V15.716H138.696C137.726 15.716 136.946 16.0193 136.356 16.626C135.767 17.2153 135.472 18.0473 135.472 19.122V27H132.066ZM149.513 27.312C148.49 27.312 147.546 27.1127 146.679 26.714C145.83 26.298 145.154 25.7087 144.651 24.946L144.989 24.27V27H141.791V7.318H145.197V15.664L144.677 14.962C145.162 14.1993 145.821 13.61 146.653 13.194C147.485 12.7607 148.447 12.544 149.539 12.544C150.874 12.544 152.078 12.8733 153.153 13.532C154.228 14.1907 155.077 15.0747 155.701 16.184C156.342 17.2933 156.663 18.5413 156.663 19.928C156.663 21.2973 156.351 22.5453 155.727 23.672C155.103 24.7987 154.254 25.6913 153.179 26.35C152.104 26.9913 150.882 27.312 149.513 27.312ZM149.123 24.192C149.903 24.192 150.596 24.01 151.203 23.646C151.81 23.282 152.278 22.7793 152.607 22.138C152.954 21.4967 153.127 20.76 153.127 19.928C153.127 19.096 152.954 18.368 152.607 17.744C152.278 17.1027 151.81 16.6 151.203 16.236C150.596 15.8547 149.903 15.664 149.123 15.664C148.378 15.664 147.702 15.846 147.095 16.21C146.506 16.574 146.038 17.0853 145.691 17.744C145.362 18.3853 145.197 19.1133 145.197 19.928C145.197 20.76 145.362 21.4967 145.691 22.138C146.038 22.7793 146.506 23.282 147.095 23.646C147.702 24.01 148.378 24.192 149.123 24.192ZM166.176 27.312C164.789 27.312 163.524 26.9913 162.38 26.35C161.253 25.7087 160.352 24.8333 159.676 23.724C159.017 22.6147 158.688 21.3493 158.688 19.928C158.688 18.5067 159.017 17.2413 159.676 16.132C160.352 15.0227 161.253 14.1473 162.38 13.506C163.506 12.8647 164.772 12.544 166.176 12.544C167.562 12.544 168.819 12.8647 169.946 13.506C171.072 14.1473 171.965 15.0227 172.624 16.132C173.3 17.224 173.638 18.4893 173.638 19.928C173.638 21.3493 173.3 22.6147 172.624 23.724C171.948 24.8333 171.046 25.7087 169.92 26.35C168.793 26.9913 167.545 27.312 166.176 27.312ZM166.176 24.192C166.938 24.192 167.606 24.01 168.178 23.646C168.767 23.282 169.226 22.7793 169.556 22.138C169.902 21.4793 170.076 20.7427 170.076 19.928C170.076 19.096 169.902 18.368 169.556 17.744C169.226 17.1027 168.767 16.6 168.178 16.236C167.606 15.8547 166.938 15.664 166.176 15.664C165.396 15.664 164.711 15.8547 164.122 16.236C163.532 16.6 163.064 17.1027 162.718 17.744C162.388 18.368 162.224 19.096 162.224 19.928C162.224 20.7427 162.388 21.4793 162.718 22.138C163.064 22.7793 163.532 23.282 164.122 23.646C164.711 24.01 165.396 24.192 166.176 24.192ZM181.265 27.312C180.173 27.312 179.219 27.0693 178.405 26.584C177.607 26.0987 176.992 25.4227 176.559 24.556C176.143 23.6893 175.935 22.6753 175.935 21.514V12.856H179.341V21.228C179.341 21.8173 179.453 22.3373 179.679 22.788C179.921 23.2213 180.259 23.568 180.693 23.828C181.143 24.0707 181.646 24.192 182.201 24.192C182.755 24.192 183.249 24.0707 183.683 23.828C184.116 23.568 184.454 23.2127 184.697 22.762C184.939 22.3113 185.061 21.774 185.061 21.15V12.856H188.467V27H185.243V24.218L185.529 24.712C185.199 25.5787 184.653 26.2287 183.891 26.662C183.145 27.0953 182.27 27.312 181.265 27.312ZM191.633 27V12.856H194.831V16.002L194.571 15.534C194.9 14.4767 195.412 13.74 196.105 13.324C196.816 12.908 197.665 12.7 198.653 12.7H199.485V15.716H198.263C197.292 15.716 196.512 16.0193 195.923 16.626C195.334 17.2153 195.039 18.0473 195.039 19.122V27H191.633Z" fill="#1C2434"/>
<rect width="32" height="32" rx="8" fill="#3C50E0"/>
<mask id="mask0_30_41" style="mask-type:alpha" maskUnits="userSpaceOnUse" x="0" y="0" width="32" height="32">
<rect width="32" height="32" rx="8" fill="#3C50E0"/>
</mask>
<g mask="url(#mask0_30_41)">
<path d="M6.90332 5.3524C6.67457 6.70848 7.31702 8.10373 8.47052 8.75974C8.9767 9.04859 9.60455 9.26399 10.5536 9.4794C12.4615 9.91021 13.1332 10.1256 13.8146 10.532C14.1894 10.7523 14.7345 11.2467 15.0216 11.6237C15.2844 11.9615 15.6592 12.7301 15.8636 13.3371L16.0242 13.812L16.18 13.3616C16.5353 12.3091 16.8127 11.8244 17.387 11.2271C18.1804 10.4047 18.925 10.0718 21.0033 9.60179C22.3174 9.30805 22.8868 9.13671 23.4028 8.86255C24.4735 8.30445 25.15 7.16378 25.1549 5.92029C25.1549 5.60697 25.0819 5.06356 25.0332 5.00971C25.0235 4.99992 24.8045 5.17126 24.5465 5.39157C24.016 5.84196 23.2032 6.39517 22.7116 6.64484C22.0497 6.98264 20.794 7.44772 20.5555 7.44772C20.4971 7.44772 20.1953 7.33023 19.8887 7.18336C18.5162 6.53224 17.2994 6.26298 15.8831 6.29725C14.4911 6.33152 13.2889 6.63015 12.0527 7.25679C11.8434 7.3645 11.6195 7.44772 11.5514 7.44772C11.4833 7.44772 11.1669 7.3596 10.8457 7.2519C9.45854 6.78681 8.44132 6.20913 7.15641 5.15658L6.96172 4.99992L6.90332 5.3524Z" fill="white"/>
<path d="M8.7821 10.5418C8.20778 11.7559 8.16885 13.0092 8.68476 14.1009C9.05953 14.9038 9.5657 15.4423 10.286 15.7997C11.3519 16.3284 12.4811 16.2696 13.5713 15.6234C13.8001 15.4912 13.9656 15.3786 13.9461 15.3786C13.9266 15.3786 13.7709 15.4276 13.6054 15.4815C13.3523 15.5745 13.1966 15.5892 12.5979 15.5892C12.0041 15.5892 11.8386 15.5696 11.5515 15.4766C10.5002 15.1437 9.74092 14.424 9.40509 13.4449C9.28341 13.0973 9.26881 12.9798 9.26394 12.4168C9.26394 11.8832 9.28341 11.7216 9.38075 11.4132C9.49756 11.0313 9.67278 10.6838 9.83826 10.4977C9.8918 10.4341 9.92587 10.3704 9.9064 10.3557C9.8772 10.3264 9.17634 10.1942 9.03519 10.1893C8.97678 10.1893 8.89404 10.3068 8.7821 10.5418Z" fill="white"/>
<path d="M22.6487 10.2432C22.5172 10.2677 22.3323 10.2971 22.2447 10.3118L22.0889 10.3411L22.2057 10.4978C22.7022 11.1685 22.9163 12.2994 22.7022 13.1855C22.4394 14.3017 21.4903 15.2416 20.3368 15.5305C19.9133 15.6382 18.7793 15.6137 18.4289 15.4913C18.278 15.4375 18.1612 15.413 18.1758 15.4326C18.2293 15.5207 18.9302 15.8879 19.2612 16.0005C20.5607 16.4362 22.1279 15.9172 22.9407 14.7717C23.2473 14.3359 23.4809 13.817 23.6026 13.2883C23.8022 12.4218 23.661 11.3888 23.2327 10.5321C23.0478 10.1649 23.0624 10.1698 22.6487 10.2432Z" fill="white"/>
<path d="M12.1258 11.2712C11.5174 11.3789 11.0891 11.9125 11.0891 12.5588C11.0891 12.9406 11.4201 13.4546 11.7948 13.6505C12.0139 13.768 12.5395 13.7924 12.8218 13.6945C13.8342 13.3567 13.9753 11.9762 13.0603 11.4328C12.8121 11.2908 12.4227 11.2223 12.1258 11.2712Z" fill="#C4CAF6"/>
<path d="M19.4364 11.2664C19.1249 11.33 18.9934 11.3985 18.7744 11.5944C18.4143 11.9224 18.2975 12.3972 18.4386 12.9358C18.5067 13.1854 18.8328 13.5526 19.0957 13.6701C19.339 13.7827 19.8014 13.7925 20.1031 13.6848C20.9744 13.3862 21.2226 12.2455 20.5509 11.5993C20.2832 11.3349 19.8014 11.1929 19.4364 11.2664Z" fill="#C4CAF6"/>
<path d="M15.7372 14.4681C15.6058 14.5611 15.3576 14.7226 15.1872 14.8303L14.8806 15.0213L15.3041 15.8486C15.5377 16.3039 15.781 16.7592 15.8443 16.8571C15.9027 16.9599 15.9562 17.0627 15.9562 17.0921C15.9562 17.1166 15.9708 17.1411 15.9952 17.1411C16.0341 17.1411 17.1438 15.0408 17.1195 15.0164C17.0708 14.9723 16.0779 14.3359 16.0341 14.3212C16.0049 14.3114 15.8735 14.3799 15.7372 14.4681Z" fill="white"/>
<path d="M17.5625 19.1041V20.0294H18.2634C18.6479 20.0294 18.9983 20.0441 19.0421 20.0588C19.1102 20.0833 19.12 19.9854 19.12 19.158V18.2278L18.9545 18.1985C18.862 18.1789 18.5116 18.1691 18.1758 18.174L17.5625 18.1789V19.1041Z" fill="#EBEDFC"/>
<path d="M19.6067 19.5399V20.0295H20.4098H21.2128V19.5399V19.0504H20.4098H19.6067V19.5399Z" fill="#EBEDFC"/>
<path d="M13.2793 20.5435V21.5961H14.058H14.8368V20.5435V19.491H14.058H13.2793V20.5435Z" fill="#EBEDFC"/>
<path d="M15.3721 20.5435V21.5961H16.1508H16.9295V20.5435V19.491H16.1508H15.3721V20.5435Z" fill="#EBEDFC"/>
<path d="M17.8247 20.896C17.7225 21.082 17.5278 21.4247 17.3915 21.6695L17.1384 22.1101L13.016 22.1248L8.89355 22.1346L9.21965 22.6143C9.39973 22.8738 9.92538 23.6326 10.3926 24.2935L11.2444 25.493L16.2283 25.5028C18.9684 25.5077 21.2122 25.4979 21.2122 25.4832C21.2122 25.4636 20.9104 24.9593 20.7595 24.7292C20.6719 24.5922 20.5064 24.8761 23.0179 20.8715L23.2077 20.568H20.6086H18.0047L17.8247 20.896Z" fill="white"/>
<path d="M11.1477 21.1065L11.1623 21.5961H11.9556H12.7441V21.1065V20.6169H11.941H11.1379L11.1477 21.1065Z" fill="#EBEDFC"/>
<path d="M6.73319 26.242C5.99339 26.3643 5.39474 26.6532 4.92263 27.1183C4.58193 27.4512 4.33371 27.8086 4.47973 27.7547C4.81069 27.6225 5.43854 27.5442 6.1248 27.5491C7.32697 27.5491 7.94509 27.74 9.67291 28.6261C10.1694 28.8807 10.7485 29.1451 10.9627 29.2185C11.3229 29.3409 11.4202 29.3507 12.1113 29.3507C12.9533 29.3507 13.0263 29.3311 14.1312 28.8709C14.978 28.5184 15.1922 28.4744 16.0293 28.4744C16.8762 28.4744 17.0758 28.5233 18.0638 28.9639C18.8474 29.3164 19.2611 29.3996 20.0203 29.3654C20.7796 29.336 21.1008 29.2283 22.3809 28.5918C23.5831 27.9946 23.9481 27.8477 24.5905 27.6862C25.4325 27.4805 26.5033 27.4805 27.2966 27.6911C27.4427 27.7302 27.5692 27.7498 27.5789 27.74C27.6227 27.696 27.282 27.27 27.0192 27.035C26.4011 26.4867 25.6856 26.2371 24.7414 26.2322C24.2498 26.2322 24.0795 26.2517 23.6853 26.3643C23.1353 26.5161 23.0671 26.5455 21.9915 27.0693C21.0522 27.5246 20.8526 27.5931 20.2686 27.6715C19.4655 27.7743 18.9106 27.6764 17.9178 27.2553C17.0222 26.8735 16.7789 26.8147 16.0537 26.8196C15.3431 26.8245 14.8077 26.942 14.0533 27.2651C13.1383 27.6568 12.4228 27.7792 11.6782 27.6715C11.1622 27.5931 10.9286 27.5099 9.99414 27.0546C9.03532 26.5895 8.61189 26.4133 8.21278 26.3252C7.81855 26.2322 7.04955 26.193 6.73319 26.242Z" fill="white"/>
<path d="M5.04418 29.3556C4.5818 29.4339 3.99775 29.6249 3.4283 29.8843L3 30.0851L3.03407 30.3298C3.18982 31.5391 3.89554 32.4301 5.05391 32.8756L5.3216 32.9784L15.8345 32.9931C27.535 33.0077 26.693 33.0322 27.4085 32.6748C27.8416 32.4545 28.377 31.9307 28.596 31.5097C28.7518 31.2159 28.9173 30.6676 28.9708 30.2809L29 30.0802L28.596 29.8941C27.097 29.199 25.8413 29.101 24.5077 29.5759C24.2887 29.6542 23.6121 29.9578 23.0086 30.2564C21.3976 31.0495 20.9158 31.1866 19.8255 31.1915C19.1587 31.1915 18.6428 31.0936 18.1026 30.8684C17.1778 30.4767 16.9686 30.4033 16.6035 30.3543C16.1509 30.2907 15.4403 30.3249 15.0168 30.4375C14.8514 30.4816 14.4863 30.6089 14.204 30.7264C13.2014 31.1376 13.07 31.167 12.0869 31.1621C10.9188 31.1621 10.7922 31.1229 9.0936 30.2907C8.35867 29.9284 7.57993 29.5759 7.36578 29.5074C6.63085 29.2822 5.80344 29.2283 5.04418 29.3556Z" fill="#EBEDFC"/>
</g>
</svg>
